<svg width="24" height="24" viewBox="0 0 24 24" fill="none" xmlns="http://www.w3.org/2000/svg">
  <path fill-rule="evenodd" clip-rule="evenodd" d="M12 24C18.6274 24 24 18.6274 24 12C24 5.37258 18.6274 0 12 0C5.37258 0 0 5.37258 0 12C0 18.6274 5.37258 24 12 24Z" fill="white"/>
  <path d="M4 7.5C4 7.5 6.5 5 9 7.5C11.5 10 14 7.5 14 7.5" stroke="#0086F8" stroke-width="1.5" stroke-linecap="round"/>
  <path d="M4 12C4 12 6.5 9.5 9 12C11.5 14.5 14 12 14 12" stroke="#0086F8" stroke-width="1.5" stroke-linecap="round"/>
  <path d="M4 16.5C4 16.5 6.5 14 9 16.5C11.5 19 14 16.5 14 16.5" stroke="#0086F8" stroke-width="1.5" stroke-linecap="round"/>
  <path d="M15 7.5C15 7.5 17 5 19.5 7.5" stroke="#0086F8" stroke-width="1.5" stroke-linecap="round"/>
  <path d="M15 12C15 12 17 9.5 19.5 12" stroke="#0086F8" stroke-width="1.5" stroke-linecap="round"/>
  <path d="M15 16.5C15 16.5 17 14 19.5 16.5" stroke="#0086F8" stroke-width="1.5" stroke-linecap="round"/>
</svg> 